{"glyphs":{":":{"x_min":0,"x_max":219,"ha":219,"o":"m 188 407 q 208 407 221 394 q 234 381 234 363 q 234 339 216 320 q 197 301 172 301 q 152 301 139 314 q 126 328 126 347 q 126 369 144 388 q 162 407 188 407 z m 142 145 q 162 145 175 132 q 188 120 188 101 q 188 78 170 58 q 151 39 126 39 q 106 39 93 52 q 80 65 80 85 q 80 106 98 126 q 116 145 142 145 z"},"$":{"x_min":0,"x_max":438,"ha":438,"o":"m 56 -1 q 63 37 69 146 l 96 149 q 100 99 126 63 q 153 27 201 22 l 249 264 q 222 277 203 289 q 185 301 162 321 q 140 342 131 371 q 123 399 129 434 q 135 465 154 491 q 173 517 200 533 q 226 549 254 559 q 282 569 308 571 l 319 627 l 353 627 l 342 572 q 362 571 403 566 q 443 562 457 564 q 451 526 449 421 l 422 417 l 420 435 q 415 486 396 511 q 376 537 336 541 l 294 327 q 315 319 331 311 q 348 303 370 287 q 393 271 406 254 q 420 236 428 210 q 436 185 430 156 q 428 146 426 136 q 423 127 416 110 q 408 93 399 79 q 390 64 374 48 q 358 31 338 19 q 319 7 290 -1 q 262 -10 229 -12 l 215 -81 l 181 -81 l 194 -12 q 164 -10 131 0 q 99 10 92 10 q 85 10 76 4 q 67 -1 56 -1 z m 235 22 q 252 25 269 31 q 286 38 303 49 q 320 61 333 81 q 347 101 352 127 q 354 147 355 163 q 355 178 349 191 q 342 204 336 213 q 330 222 319 229 q 308 237 299 242 q 291 247 280 251 z m 302 541 q 264 535 233 507 q 202 480 194 438 q 184 382 263 341 z"},"?":{"x_min":0,"x_max":405,"ha":405,"o":"m 146 520 q 146 539 158 562 q 170 585 192 607 q 215 629 253 644 q 292 659 338 659 q 405 659 446 626 q 486 594 486 539 q 486 500 469 466 q 453 432 427 409 q 401 386 375 368 l 323 332 q 298 314 289 301 q 265 268 257 228 l 250 184 q 249 174 235 174 q 229 174 227 177 q 224 179 224 184 l 232 230 q 239 268 253 298 q 267 329 282 348 q 298 367 316 383 l 350 413 q 366 427 379 442 q 393 457 400 479 q 408 501 408 530 q 408 571 384 600 q 360 629 323 629 q 275 629 247 608 q 219 588 219 563 q 219 554 224 546 q 227 540 227 532 q 227 516 214 501 q 202 487 180 487 q 167 487 156 494 q 146 502 146 520 z m 227 95 q 247 95 260 82 q 273 69 273 51 q 273 27 255 8 q 236 -11 211 -11 q 191 -11 178 2 q 165 16 165 35 q 165 57 183 76 q 201 95 227 95 z"},"<":{"x_min":0,"x_max":487,"ha":487,"o":"m 164 239 l 460 123 l 452 73 l 87 215 l 95 263 l 510 404 l 501 354 z"},"'":{"x_min":0,"x_max":190,"ha":190,"o":"m 154 426 q 156 585 158 594 q 161 612 178 628 q 196 644 218 644 q 233 644 240 637 q 247 629 247 618 l 247 611 q 246 604 229 559 l 198 472 l 182 430 z"},"=":{"x_min":0,"x_max":527,"ha":527,"o":"m 496 193 l 487 144 l 91 144 l 100 193 z m 518 318 l 509 269 l 113 269 l 122 318 z"},"a":{"x_min":0,"x_max":486,"ha":486,"o":"m 410 433 q 419 431 430 430 q 441 430 458 431 q 474 431 480 431 l 411 120 q 401 70 401 64 q 401 56 405 53 q 409 50 413 50 q 431 50 469 103 q 476 103 480 100 q 485 98 486 95 l 492 87 q 448 -10 364 -10 q 323 -10 323 35 q 323 57 333 90 l 346 132 l 344 134 q 247 -10 175 -10 q 78 -10 78 125 q 78 182 103 240 q 127 298 164 341 q 201 384 246 412 q 291 439 330 439 q 356 439 410 433 z m 360 219 q 371 248 380 290 q 389 333 392 361 l 395 389 q 365 408 333 408 q 300 408 267 381 q 234 354 211 314 q 188 274 173 228 q 158 181 158 141 q 158 45 202 45 q 227 45 275 98 q 323 152 360 219 z"},"L":{"x_min":0,"x_max":519,"ha":519,"o":"m 117 76 l 213 569 q 217 591 208 602 q 198 613 169 615 l 135 618 q 133 622 134 633 q 136 644 138 647 q 226 645 265 645 q 295 645 385 647 q 388 640 387 631 q 386 621 383 618 l 352 615 q 322 612 308 602 q 294 591 290 569 l 196 89 q 195 84 195 76 q 195 59 204 49 q 214 39 232 39 l 342 39 q 430 39 489 170 q 496 172 504 170 q 513 167 517 163 q 477 63 459 -2 q 371 0 345 0 l 142 0 q 112 0 22 -2 q 19 5 20 14 q 21 24 24 27 l 55 30 q 85 33 99 44 q 113 55 117 76 z"},"3":{"x_min":0,"x_max":444,"ha":444,"o":"m 327 575 q 315 575 301 572 q 287 569 270 561 q 252 554 239 538 q 226 522 221 499 q 210 447 174 447 q 158 447 152 458 q 146 468 148 481 q 150 492 158 507 q 166 522 183 541 q 200 559 222 574 q 245 589 279 600 q 314 610 354 610 q 421 610 451 571 q 475 540 466 492 q 458 450 430 418 q 401 387 339 359 l 340 357 q 358 354 374 347 q 390 341 406 329 q 423 316 432 299 q 441 282 446 257 q 451 231 444 199 q 431 136 392 87 q 352 39 299 14 q 246 -10 188 -10 q 158 -10 128 -2 q 98 6 78 22 q 58 38 62 57 q 64 69 80 81 q 95 92 110 92 q 133 92 146 66 q 146 65 149 59 q 151 53 152 52 q 153 50 156 45 q 159 40 161 38 l 168 33 q 173 30 178 29 q 183 27 191 26 q 198 25 207 25 q 219 25 233 29 q 248 32 267 43 q 286 54 303 71 q 320 88 335 118 q 350 147 357 185 q 361 206 361 223 q 361 240 358 253 q 354 266 349 275 q 344 285 335 292 q 327 298 318 303 q 309 308 298 310 q 287 312 277 313 q 267 314 256 314 q 227 314 210 312 l 211 344 q 279 354 330 398 q 381 443 390 485 q 399 530 380 552 q 361 575 327 575 z"},";":{"x_min":0,"x_max":219,"ha":219,"o":"m 71 45 q 71 67 89 81 q 106 95 130 95 q 153 95 169 78 q 184 60 184 31 q 184 14 180 -4 q 177 -22 167 -43 q 157 -63 141 -81 q 125 -98 99 -112 q 73 -126 40 -132 q 28 -122 32 -109 q 70 -100 103 -72 q 136 -43 136 -22 q 136 -14 131 -8 q 126 -2 121 0 q 115 1 105 4 q 71 13 71 45 z m 187 407 q 207 407 220 394 q 233 381 233 363 q 233 339 215 320 q 196 301 171 301 q 151 301 138 314 q 125 328 125 347 q 125 369 143 388 q 161 407 187 407 z"},"J":{"x_min":0,"x_max":414,"ha":414,"o":"m 435 580 q 429 542 418 460 q 407 377 407 360 q 407 344 417 340 q 426 335 453 333 l 450 308 l 397 303 l 368 128 q 354 41 329 -24 q 305 -88 273 -126 q 242 -164 206 -182 q 169 -200 127 -200 q 90 -200 61 -184 q 31 -167 31 -141 q 31 -127 41 -114 q 51 -101 69 -101 q 85 -101 96 -106 q 107 -111 116 -124 q 121 -131 125 -143 q 128 -154 131 -159 q 134 -165 141 -165 q 189 -165 226 -96 q 262 -26 284 106 l 317 302 l 194 311 l 194 331 l 323 338 l 325 350 q 338 427 351 471 q 363 514 387 567 l 386 571 q 380 568 370 568 q 346 568 317 580 q 305 585 278 598 q 252 611 234 616 q 216 622 197 622 q 181 622 171 614 q 160 605 160 594 q 160 591 168 583 q 176 576 184 566 q 192 556 192 545 q 192 514 159 514 q 141 514 132 526 q 122 538 122 558 q 122 574 129 592 q 137 609 152 625 q 167 642 193 653 q 220 663 255 663 q 262 663 270 662 q 277 661 287 659 q 296 656 303 655 q 309 653 321 649 q 333 644 337 642 q 342 641 355 635 q 369 628 371 627 q 374 626 389 620 l 403 613 q 406 636 421 656 q 437 677 459 677 q 496 677 496 649 q 496 621 435 580 z"},"V":{"x_min":0,"x_max":597,"ha":597,"o":"m 617 553 q 649 610 721 618 q 726 623 726 633 q 726 643 721 647 q 647 645 627 645 q 597 645 517 647 q 513 643 513 633 q 513 623 517 618 q 558 615 573 602 q 588 589 573 561 l 340 127 q 336 123 333 127 l 269 572 q 266 594 287 605 q 309 616 341 618 q 345 623 345 633 q 345 643 341 647 q 274 645 220 645 q 194 645 114 647 q 109 643 109 633 q 109 623 114 618 q 150 614 161 608 q 182 597 188 556 l 269 11 q 273 -12 287 -12 q 301 -12 314 11 z"},"\"":{"x_min":0,"x_max":336,"ha":336,"o":"m 291 427 q 292 586 294 595 q 296 613 314 629 q 333 645 354 645 q 383 645 383 619 l 383 612 q 381 604 365 560 l 333 473 l 318 431 z m 164 426 q 166 585 167 594 q 170 612 188 628 q 206 644 228 644 q 257 644 257 618 q 257 613 256 611 q 254 604 238 559 l 207 472 l 191 430 z"},"7":{"x_min":0,"x_max":444,"ha":444,"o":"m 286 535 q 272 535 262 533 q 252 530 239 522 q 226 514 212 495 q 199 477 186 448 q 170 447 156 451 q 158 456 167 481 l 179 518 l 188 547 q 195 567 199 582 q 203 597 206 611 q 207 614 210 614 q 214 613 225 606 q 236 600 256 600 l 453 600 q 491 600 529 611 l 542 599 l 492 514 l 444 431 l 404 359 l 365 287 l 332 226 l 298 161 l 269 105 l 237 45 l 209 -10 l 143 -13 l 137 -6 q 221 127 458 535 z"},"S":{"x_min":0,"x_max":454,"ha":454,"o":"m 493 626 q 492 608 489 566 q 485 524 485 497 l 454 499 q 452 522 449 538 q 446 554 439 571 q 431 589 420 599 q 409 610 389 617 q 370 624 343 624 q 295 624 260 596 q 225 567 216 522 q 214 512 214 501 q 214 482 222 463 q 230 445 241 432 q 253 419 269 407 q 284 395 296 388 q 308 381 320 376 q 349 363 370 349 q 391 336 412 316 q 433 296 444 270 q 456 243 456 211 q 456 192 452 174 q 437 98 368 44 q 298 -10 215 -10 q 171 -10 124 -2 q 77 5 51 5 q 60 66 64 165 l 94 168 q 96 26 230 26 q 346 26 368 139 q 372 161 372 176 q 372 218 350 245 q 328 271 289 291 q 265 303 247 314 q 229 325 208 341 q 187 357 173 374 q 160 391 151 414 q 142 437 142 462 q 142 479 145 495 q 155 545 191 584 q 227 622 271 640 q 315 658 359 658 q 389 658 410 654 q 431 650 440 645 q 449 640 463 634 q 477 628 493 626 z"},"}":{"x_min":0,"x_max":273,"ha":273,"o":"m 82 -73 l 113 108 q 125 174 145 203 q 165 232 206 248 q 179 260 168 279 q 157 298 157 329 q 157 356 165 399 l 193 563 q 199 597 199 617 q 199 640 193 656 q 187 671 178 681 q 169 690 165 692 q 160 694 152 697 l 155 711 q 240 709 260 675 q 271 651 271 617 q 271 586 264 548 l 233 374 q 229 350 229 326 q 229 263 278 250 l 278 245 q 207 226 189 125 l 156 -65 q 141 -146 108 -181 q 72 -215 -9 -217 l -6 -203 q 26 -194 50 -162 q 70 -134 82 -73 z"},"Z":{"x_min":0,"x_max":578,"ha":578,"o":"m 528 -2 q 432 0 407 0 l 57 0 q 41 0 41 12 q 41 25 54 38 l 532 579 q 542 590 543 597 q 545 605 535 605 l 314 605 q 293 605 276 599 q 258 592 246 583 q 234 575 222 557 q 209 539 201 525 q 194 511 181 486 l 153 491 q 179 558 207 658 q 222 657 240 651 q 257 645 282 645 l 590 645 q 605 646 626 651 q 647 655 653 655 q 673 655 673 647 q 673 629 639 591 l 178 72 q 168 56 167 52 q 166 45 171 42 q 176 39 188 39 l 412 39 q 438 39 460 49 q 482 59 500 78 q 518 98 530 119 q 543 140 557 170 l 586 165 q 547 69 528 -2 z"},"x":{"x_min":0,"x_max":475,"ha":475,"o":"m 215 309 q 204 339 197 351 q 190 362 169 362 q 149 362 104 341 q 94 351 91 372 q 120 393 163 416 q 207 439 223 439 q 241 439 252 424 q 263 408 276 367 l 304 279 l 354 351 q 390 402 418 421 q 447 439 486 439 q 504 439 520 428 q 536 417 536 399 q 536 382 526 369 q 515 356 504 356 q 484 356 471 366 q 458 376 441 376 q 432 376 418 370 q 404 364 394 349 l 318 237 l 372 76 q 385 39 396 39 q 414 39 446 80 q 463 77 470 61 q 449 25 419 8 q 389 -10 360 -10 q 335 -10 324 2 q 313 14 303 46 l 265 167 l 195 68 q 162 21 142 6 q 120 -10 93 -10 q 72 -10 54 0 q 35 10 35 28 q 35 44 46 55 q 57 66 73 66 q 89 66 102 60 q 114 54 129 54 q 144 54 157 73 l 250 210 z"},")":{"x_min":0,"x_max":313,"ha":313,"o":"m 312 504 q 334 432 334 350 q 334 305 326 252 q 301 116 223 0 q 140 -124 33 -203 l 18 -186 q 110 -100 167 12 q 226 128 248 252 q 261 331 261 389 q 261 439 252 493 q 234 604 173 691 l 194 708 q 280 619 312 504 z"},"&":{"x_min":0,"x_max":705,"ha":705,"o":"m 434 610 q 402 610 371 578 q 340 547 340 504 q 340 473 360 412 q 488 488 488 558 q 488 583 474 596 q 460 610 434 610 z m 554 556 q 554 530 538 502 q 521 475 493 451 q 465 427 437 408 q 408 389 375 372 q 376 370 382 356 q 388 342 395 328 q 402 313 422 276 l 469 190 q 604 348 604 385 q 604 396 592 396 l 563 396 q 558 396 560 403 l 563 420 l 565 422 q 617 420 651 420 l 739 422 l 740 420 l 737 404 q 735 396 727 396 l 699 396 q 684 396 671 388 q 658 379 640 358 q 623 336 605 312 l 556 243 q 522 198 488 156 l 514 111 q 531 79 548 62 q 565 45 579 45 q 604 45 625 58 q 645 72 666 102 l 679 94 q 654 44 623 18 q 591 -9 563 -9 q 549 -9 539 -7 q 528 -5 514 1 q 500 8 487 22 q 474 37 461 60 l 438 98 q 391 46 342 19 q 293 -9 234 -9 q 158 -9 114 23 q 69 55 69 121 q 69 197 121 256 q 173 315 294 377 q 267 443 267 488 q 267 556 320 600 q 373 644 445 644 q 493 644 524 620 q 554 596 554 556 z m 311 340 q 292 330 277 322 q 263 313 242 299 q 221 285 206 268 q 191 251 177 230 q 163 209 155 181 q 148 153 148 122 q 148 72 175 49 q 203 25 247 25 q 273 25 294 31 q 316 38 337 54 q 359 69 376 86 q 393 102 419 132 l 350 258 q 315 325 311 340 z"},"_":{"x_min":0,"x_max":486,"ha":486,"o":"m 463 -110 l 455 -154 l -22 -154 l -15 -110 z"},"v":{"x_min":0,"x_max":472,"ha":472,"o":"m 305 76 l 309 74 q 327 88 372 148 q 402 189 424 239 q 447 290 447 321 q 447 350 426 381 q 420 389 420 402 q 420 439 467 439 q 520 439 520 392 q 520 350 492 285 q 467 226 396 127 q 366 83 313 24 q 287 -5 279 -9 q 274 -12 270 -12 q 249 -12 238 52 l 196 296 q 190 330 185 343 q 180 357 173 357 q 160 357 145 345 q 129 333 103 309 q 86 311 82 327 q 110 370 147 405 q 184 439 208 439 q 234 439 247 411 q 260 383 271 309 z"},"O":{"x_min":0,"x_max":668,"ha":668,"o":"m 436 624 q 402 624 366 607 q 330 589 294 555 q 259 521 230 461 q 202 402 187 327 q 178 282 178 244 q 178 142 229 83 q 281 24 357 24 q 441 24 511 101 q 581 179 607 310 q 617 365 617 410 q 617 514 568 569 q 520 624 436 624 z m 699 329 q 680 229 628 153 q 576 76 499 33 q 422 -10 331 -10 q 222 -10 155 56 q 87 122 87 234 q 87 268 95 310 q 114 407 167 487 q 219 566 295 612 q 371 658 455 658 q 566 658 636 588 q 707 519 707 403 q 707 368 699 329 z"},"(":{"x_min":0,"x_max":306,"ha":306,"o":"m 108 0 q 86 72 86 154 q 86 195 94 252 q 118 388 197 503 q 275 624 387 707 l 402 689 q 310 603 253 492 q 194 376 172 252 q 159 176 159 115 q 159 61 168 11 q 186 -101 247 -187 l 226 -204 q 139 -114 108 0 z"},"C":{"x_min":0,"x_max":616,"ha":616,"o":"m 338 -10 q 274 -10 226 10 q 177 31 147 66 q 118 101 104 145 q 89 189 89 241 q 89 277 96 315 q 115 411 174 490 q 232 570 311 614 q 390 658 469 658 q 521 658 559 647 q 597 637 623 625 q 649 614 670 613 q 663 547 661 458 l 632 454 q 617 621 451 621 q 427 621 398 611 q 369 601 335 578 q 302 555 273 523 q 244 491 219 441 q 194 392 183 334 q 175 290 175 250 q 175 205 185 166 q 195 127 215 97 q 235 66 268 48 q 302 31 345 31 q 412 31 469 56 q 527 82 589 140 q 603 140 608 125 q 547 59 478 25 q 408 -10 338 -10 z"},"W":{"x_min":0,"x_max":858,"ha":858,"o":"m 215 556 q 213 576 208 587 q 203 599 191 605 q 180 611 173 613 q 166 615 146 617 q 141 618 139 618 q 135 623 135 633 q 135 643 139 647 q 219 645 245 645 q 299 645 365 647 q 370 643 370 633 q 370 623 365 618 q 334 616 312 605 q 292 594 294 572 l 330 218 l 341 117 l 388 216 l 554 561 q 591 577 608 579 q 615 549 622 486 l 654 207 l 666 111 l 713 215 l 866 561 q 879 589 861 602 q 844 615 802 618 q 797 623 797 633 q 797 643 802 647 q 882 645 912 645 q 932 645 1006 647 q 1010 643 1010 633 q 1010 623 1006 618 q 968 614 946 597 q 923 581 910 553 l 659 11 q 648 -12 630 -12 q 621 -12 613 -5 q 605 2 604 12 l 561 367 q 554 423 550 442 q 550 445 544 445 q 541 439 535 427 l 521 397 l 508 370 l 332 12 q 320 -12 303 -12 q 292 -12 285 -6 q 278 1 277 12 z"},"A":{"x_min":0,"x_max":667,"ha":667,"o":"m 307 283 l 474 283 l 433 550 l 431 550 l 286 296 q 284 292 284 290 q 284 283 307 283 z m 161 79 q 154 66 154 56 q 154 32 190 29 l 217 27 q 224 27 223 19 l 221 0 l 218 -2 q 147 0 93 0 q 76 0 4 -2 l 3 0 l 6 19 q 7 27 15 27 q 50 29 73 44 q 96 59 122 102 l 437 622 q 450 643 458 650 q 466 658 476 658 q 486 658 490 651 q 494 644 496 628 l 588 86 q 592 57 606 44 q 619 31 648 28 l 658 27 q 667 27 666 19 l 664 0 l 662 -2 q 592 0 549 0 q 494 0 422 -2 l 421 0 l 423 19 q 423 27 431 27 l 459 29 q 508 32 508 62 q 508 65 507 72 l 482 241 l 282 241 q 265 241 258 238 q 250 234 245 224 z"},"f":{"x_min":0,"x_max":314,"ha":314,"o":"m 188 390 l 106 390 q 100 390 100 392 q 100 397 104 409 q 108 424 132 426 l 198 429 q 229 578 277 634 q 305 667 343 682 q 381 698 408 698 q 460 698 492 677 q 523 655 523 624 q 523 613 514 601 q 505 590 485 590 q 463 590 453 604 q 443 617 438 639 q 435 654 426 659 q 417 665 400 665 q 382 665 358 646 q 333 626 317 585 q 299 545 287 486 l 276 429 l 386 429 q 393 429 393 424 l 388 402 q 387 396 378 393 q 370 390 362 390 l 269 390 l 266 373 q 252 291 219 130 q 189 -15 170 -80 q 151 -146 130 -175 q 107 -206 77 -222 q 46 -238 14 -238 q -33 -238 -56 -224 q -79 -211 -79 -192 q -79 -177 -70 -167 q -61 -156 -42 -156 q -26 -156 -13 -166 q 1 -176 9 -188 q 13 -194 15 -197 q 17 -200 22 -203 q 27 -205 33 -205 q 44 -205 57 -197 q 70 -188 79 -175 q 84 -166 90 -153 q 96 -140 101 -122 l 109 -90 q 114 -75 118 -51 q 122 -27 125 -12 q 128 2 132 29 q 136 56 137 68 l 143 107 q 146 135 147 141 q 155 202 188 390 z"},"Q":{"x_min":0,"x_max":668,"ha":668,"o":"m 436 624 q 402 624 366 607 q 330 589 294 555 q 259 521 230 461 q 202 402 187 327 q 178 282 178 244 q 178 142 229 83 q 281 24 357 24 q 441 24 511 101 q 581 179 607 310 q 617 365 617 410 q 617 514 568 569 q 520 624 436 624 z m 127 -128 q 201 -55 294 -8 q 200 3 144 68 q 87 132 87 234 q 87 268 95 310 q 114 407 167 487 q 219 566 295 612 q 371 658 455 658 q 566 658 636 588 q 707 519 707 403 q 707 368 699 329 q 673 198 592 108 q 511 19 398 -3 q 330 -21 253 -71 q 264 -70 272 -70 q 308 -70 344 -83 q 381 -96 406 -111 q 432 -126 464 -139 q 496 -152 524 -152 q 547 -152 572 -143 q 597 -134 615 -115 l 629 -127 q 593 -169 556 -189 q 520 -209 475 -209 q 440 -209 410 -199 q 379 -189 356 -175 l 312 -147 q 291 -133 267 -124 q 244 -114 219 -114 q 204 -114 183 -126 q 161 -146 137 -173 l 104 -153 q 114 -140 127 -128 z"},"w":{"x_min":0,"x_max":688,"ha":688,"o":"m 265 -12 q 249 -12 238 52 l 196 296 q 190 330 185 343 q 180 357 173 357 q 160 357 145 345 q 129 333 103 309 q 86 311 82 327 q 110 370 147 405 q 184 439 208 439 q 234 439 247 411 q 259 384 271 309 l 305 96 l 308 95 q 329 127 369 204 q 410 280 438 346 q 460 357 487 358 q 496 335 512 269 q 534 178 547 96 l 554 94 q 576 118 599 148 q 627 186 645 236 q 663 287 663 321 q 663 350 642 381 q 637 389 637 402 q 637 439 683 439 q 735 439 735 392 q 735 349 708 285 q 667 187 623 126 q 585 72 548 25 q 518 -12 502 -12 q 495 -12 489 0 q 484 13 479 46 q 463 153 439 258 l 434 257 q 384 148 307 27 q 295 9 283 -1 q 271 -12 265 -12 z"},"-":{"x_min":0,"x_max":333,"ha":333,"o":"m 316 236 l 89 236 q 84 236 81 240 q 77 244 77 250 q 78 252 78 253 q 81 265 91 278 q 101 290 109 290 l 338 290 q 349 290 349 278 l 349 272 q 348 263 336 249 q 325 236 316 236 z"},"E":{"x_min":0,"x_max":526,"ha":526,"o":"m 553 646 q 553 637 550 582 q 547 528 545 501 l 517 496 q 515 520 512 534 q 509 549 503 564 q 497 579 487 587 q 478 595 463 600 q 448 605 427 605 l 327 605 q 292 605 285 571 l 245 361 l 367 361 q 391 361 404 371 q 416 381 423 403 l 430 428 q 432 436 439 436 l 460 436 l 463 432 q 447 374 442 342 q 434 299 429 255 l 424 252 l 403 252 q 399 252 398 255 q 397 257 398 260 l 400 285 q 400 288 400 293 q 400 310 391 317 q 381 323 359 323 l 237 323 l 188 72 q 187 64 187 62 q 187 49 195 44 q 202 39 217 39 l 347 39 q 441 39 502 170 l 531 165 l 463 -2 q 387 0 341 0 l 135 0 q 103 0 13 -2 l 11 0 l 15 20 q 18 27 24 27 l 53 29 q 81 31 94 41 q 106 50 111 72 l 208 571 q 209 579 209 585 q 209 600 199 607 q 189 614 167 616 l 139 618 q 130 618 133 625 l 137 645 l 139 647 q 229 645 260 645 l 503 645 q 526 645 549 649 q 553 649 553 646 z"},"s":{"x_min":0,"x_max":353,"ha":353,"o":"m 174 -10 q 124 -7 91 16 q 59 39 59 68 q 59 80 68 91 q 77 103 96 103 q 117 103 129 87 q 141 70 143 50 q 145 34 155 29 q 165 23 186 23 q 223 23 247 41 q 271 59 271 97 q 271 146 210 187 q 123 246 123 314 q 123 363 162 401 q 201 439 263 439 q 308 439 343 413 q 377 387 377 359 q 377 345 368 335 q 360 325 341 325 q 323 325 310 341 q 297 357 295 377 q 291 406 250 406 q 220 406 203 385 q 187 364 187 335 q 187 316 196 301 q 205 287 227 272 q 293 228 320 192 q 346 155 346 118 q 346 62 304 26 q 261 -10 189 -10 z"},">":{"x_min":0,"x_max":487,"ha":487,"o":"m 407 236 l 111 352 l 120 402 l 485 260 l 477 212 l 62 71 l 70 121 z"},"l":{"x_min":0,"x_max":266,"ha":266,"o":"m 286 583 l 184 127 q 171 67 171 64 q 171 50 183 50 q 193 50 215 66 q 237 83 258 108 q 273 108 280 91 q 219 -10 135 -10 q 92 -10 92 34 q 92 51 107 119 l 206 563 q 213 594 213 613 q 213 628 208 635 q 203 641 192 641 l 161 643 q 156 643 156 648 l 159 672 q 190 674 234 682 q 279 691 299 698 q 311 698 311 688 q 301 648 286 583 z"},"8":{"x_min":0,"x_max":444,"ha":444,"o":"m 341 575 q 299 575 271 551 q 244 527 237 491 q 231 463 240 438 q 248 414 284 386 l 310 367 q 399 427 410 486 q 417 524 401 550 q 384 575 341 575 z m 477 485 q 473 462 457 440 q 441 417 418 400 q 396 382 374 369 q 353 356 332 346 l 391 303 q 457 255 439 162 q 434 139 422 115 q 411 91 391 69 q 371 46 346 29 q 321 11 288 1 q 254 -10 218 -10 q 140 -10 102 31 q 63 71 78 146 q 84 177 104 209 q 125 240 157 266 q 190 292 245 321 l 223 337 q 185 366 171 398 q 157 430 165 472 q 177 531 229 571 q 281 610 353 610 q 422 610 455 575 q 488 541 477 485 z m 227 25 q 246 25 265 30 q 283 34 304 46 q 326 57 342 82 q 358 107 365 142 q 380 221 307 275 l 267 303 q 234 283 209 260 q 184 236 171 214 q 158 191 151 176 q 145 160 142 146 q 136 114 142 90 q 148 65 162 52 q 177 38 193 31 q 209 25 227 25 z"},"\\":{"x_min":0,"x_max":321,"ha":321,"o":"m 178 698 l 311 -48 l 267 -48 l 134 698 z"},"e":{"x_min":0,"x_max":401,"ha":401,"o":"m 355 370 q 355 392 344 400 q 333 408 306 408 q 216 408 174 237 q 206 241 235 250 q 264 258 292 273 q 321 288 338 313 q 355 338 355 370 z m 167 199 q 166 191 166 165 q 166 101 186 75 q 206 50 242 50 q 279 50 304 62 q 329 75 370 117 q 386 117 393 101 q 307 -10 206 -10 q 146 -10 115 33 q 83 75 83 142 q 83 182 92 222 q 100 262 120 302 q 139 341 167 371 q 195 401 237 420 q 279 439 329 439 q 354 439 374 431 q 394 423 404 411 q 414 399 419 387 q 424 375 424 365 q 424 333 414 313 q 375 240 167 199 z"},"b":{"x_min":0,"x_max":478,"ha":478,"o":"m 285 583 l 230 336 l 232 335 l 251 357 l 272 379 q 288 396 298 403 q 308 410 323 420 q 339 431 355 435 q 371 439 387 439 q 420 439 442 430 q 463 422 474 405 q 484 387 488 368 q 492 348 492 320 q 492 247 437 161 q 381 76 309 27 q 255 -10 204 -10 q 140 -10 115 23 q 91 56 102 106 l 205 563 q 212 594 212 613 q 212 628 207 635 q 202 641 191 641 l 160 643 q 155 643 155 648 l 158 672 q 189 674 233 682 q 278 691 298 698 q 310 698 310 688 q 300 648 285 583 z m 410 301 q 410 392 357 392 q 348 392 339 389 q 330 386 322 382 q 314 378 304 369 l 287 355 q 280 349 269 336 l 252 317 l 234 296 l 217 276 l 183 132 q 158 25 209 25 q 237 25 272 48 q 308 71 338 108 q 369 145 389 197 q 410 249 410 301 z"},"%":{"x_min":0,"x_max":637,"ha":637,"o":"m 439 77 q 439 42 453 26 q 467 10 484 10 q 510 10 532 36 q 554 62 564 95 q 575 128 575 157 q 575 175 570 188 q 565 201 558 207 q 550 213 543 215 q 536 218 530 218 q 495 218 467 170 q 439 123 439 77 z m 388 91 q 388 150 427 200 q 466 250 520 250 q 536 250 550 246 q 564 241 577 232 q 590 222 598 204 q 605 185 605 159 q 605 133 596 103 q 588 72 573 45 q 558 17 532 -1 q 507 -19 478 -19 q 436 -19 412 14 q 388 48 388 91 z m 436 515 q 476 515 517 527 q 558 539 586 569 l 619 548 l 139 -14 l 102 -5 l 530 497 q 483 478 427 478 q 409 478 385 484 q 360 491 346 499 q 349 487 349 474 q 349 449 341 419 q 333 389 317 361 q 302 333 277 315 q 252 297 222 297 q 178 297 155 330 q 131 362 131 406 q 131 465 170 515 q 210 565 263 565 q 283 565 302 557 q 321 550 329 540 q 383 515 436 515 z m 182 392 q 182 357 196 342 q 210 326 228 326 q 253 326 275 351 q 296 376 307 409 q 318 443 318 473 q 318 506 304 520 q 291 533 273 533 q 250 533 229 510 q 207 487 195 454 q 182 421 182 392 z"},"m":{"x_min":0,"x_max":783,"ha":783,"o":"m 182 321 q 191 362 191 372 q 191 391 173 392 l 133 395 q 122 412 132 423 l 165 427 l 200 432 q 212 433 229 435 q 245 436 256 436 q 276 436 276 415 q 276 409 274 398 q 272 387 270 376 l 262 349 q 257 331 254 320 l 252 311 l 254 310 q 354 439 450 439 q 475 439 491 419 q 508 400 508 352 q 508 327 504 305 q 529 337 548 358 q 567 378 591 399 q 614 419 638 429 q 663 439 688 439 q 714 439 731 417 q 749 396 749 352 q 749 319 739 279 l 692 101 q 687 83 687 61 q 687 50 694 50 q 707 50 727 68 q 746 86 764 115 q 783 115 786 101 q 740 -10 638 -10 q 626 -10 616 0 q 606 9 606 23 q 606 43 624 114 l 663 271 q 672 306 672 342 q 672 363 665 371 q 658 379 643 379 q 618 379 583 347 q 548 314 487 229 l 449 72 q 447 64 444 49 q 441 34 439 26 q 437 18 433 9 q 429 -1 421 -5 q 414 -10 403 -10 q 380 -10 371 -3 q 362 4 362 17 q 362 21 364 30 q 366 39 370 52 l 375 72 l 423 275 q 431 312 431 342 q 431 364 426 371 q 420 379 405 379 q 387 379 365 367 q 343 354 309 320 q 276 286 239 233 l 199 72 q 197 64 194 49 q 191 34 189 26 q 187 18 183 9 q 179 -1 171 -5 q 164 -10 153 -10 q 130 -10 121 -3 q 112 4 112 17 q 112 21 114 30 q 116 39 120 52 l 125 72 z"},"#":{"x_min":0,"x_max":438,"ha":438,"o":"m 376 341 l 339 231 l 429 231 l 414 183 l 324 183 l 266 13 l 233 13 l 290 183 l 180 183 l 123 13 l 90 13 l 146 183 l 56 183 l 72 231 l 163 231 l 199 341 l 109 341 l 125 390 l 216 390 l 272 560 l 306 560 l 249 390 l 359 390 l 416 560 l 449 560 l 392 390 l 482 390 l 466 341 z m 307 231 l 343 341 l 233 341 l 196 231 z"},",":{"x_min":0,"x_max":219,"ha":219,"o":"m 62 45 q 62 67 80 81 q 98 95 121 95 q 145 95 160 78 q 175 60 175 31 q 175 14 171 -4 q 167 -22 157 -43 q 147 -63 132 -81 q 116 -98 90 -112 q 64 -126 31 -132 q 19 -122 22 -109 q 61 -100 94 -72 q 127 -43 127 -22 q 127 -14 122 -8 q 117 -2 112 0 q 106 1 96 4 q 62 13 62 45 z"},"n":{"x_min":0,"x_max":518,"ha":518,"o":"m 433 124 q 422 74 422 67 q 422 50 432 50 q 440 50 459 64 q 479 79 497 100 q 514 100 520 83 q 448 -10 378 -10 q 337 -10 337 23 q 337 43 354 115 l 392 275 q 405 331 405 343 q 405 364 396 372 q 388 379 370 379 q 324 379 216 238 l 178 72 q 176 65 174 53 q 172 41 170 33 q 169 26 166 17 q 163 8 159 3 q 155 -2 148 -6 q 141 -10 132 -10 q 89 -10 89 17 q 89 21 91 30 q 93 39 97 52 l 102 72 l 158 321 q 167 362 167 372 q 167 391 149 392 l 109 395 q 98 412 108 423 q 213 436 234 436 q 254 436 254 415 q 254 409 252 398 q 250 387 247 376 l 240 349 q 235 331 232 320 l 230 311 l 231 310 q 296 387 336 413 q 376 439 418 439 q 484 439 484 359 q 484 340 471 283 z"},"h":{"x_min":0,"x_max":519,"ha":519,"o":"m 176 72 q 174 65 172 53 q 170 41 168 33 q 167 26 164 17 q 161 8 157 3 q 153 -2 146 -6 q 139 -10 130 -10 q 107 -10 98 -3 q 89 4 89 17 q 89 21 91 30 q 93 39 97 52 l 102 72 l 211 563 q 218 594 218 613 q 218 628 213 635 q 208 641 197 641 l 166 643 q 161 643 161 648 l 164 672 q 195 674 240 682 q 284 691 304 698 q 316 698 316 688 q 306 648 291 583 l 230 312 q 294 386 338 413 q 382 439 426 439 q 492 439 492 359 q 492 343 479 283 l 441 124 q 430 77 430 67 q 430 50 440 50 q 448 50 467 64 q 486 79 505 100 q 522 100 528 83 q 456 -10 389 -10 q 348 -10 348 23 q 348 42 365 115 l 403 275 q 413 320 413 342 q 413 363 404 371 q 396 379 378 379 q 352 379 307 340 q 263 301 214 238 z"},"z":{"x_min":0,"x_max":436,"ha":436,"o":"m 438 444 l 467 429 q 462 422 456 413 q 449 404 434 387 q 418 370 412 362 q 378 319 287 222 l 176 102 q 207 102 229 96 q 250 91 260 84 q 270 78 283 73 q 296 67 313 67 q 325 67 334 69 q 344 71 356 77 q 369 83 382 97 q 395 111 408 133 q 425 133 433 123 q 399 46 372 18 q 344 -10 310 -10 q 265 -10 224 15 q 183 41 148 41 q 139 41 123 27 q 106 13 91 -12 q 82 -11 68 -6 q 59 -4 54 7 q 60 26 116 91 l 356 356 q 343 354 325 354 q 313 354 275 358 q 237 363 213 363 q 178 363 161 352 q 145 341 129 307 q 110 307 102 315 q 116 361 145 400 q 174 439 199 439 q 225 439 305 426 q 371 412 384 412 q 410 412 438 444 z"},"B":{"x_min":0,"x_max":557,"ha":557,"o":"m 290 570 l 250 366 l 321 366 q 459 366 482 481 q 486 501 486 516 q 486 542 477 562 q 467 582 451 593 q 436 603 418 608 q 401 613 382 613 q 356 613 341 611 q 325 610 315 608 q 306 605 301 599 q 295 593 294 587 q 292 582 290 570 z m 244 332 l 194 78 q 192 70 192 64 q 192 47 208 40 q 224 32 265 32 q 318 32 355 42 q 393 52 415 72 q 437 91 448 113 q 459 135 466 165 q 470 186 470 202 q 470 260 430 296 q 391 332 310 332 z m 20 19 q 21 27 28 27 l 57 29 q 89 31 100 38 q 110 45 115 71 l 213 574 q 215 587 215 592 q 215 605 206 610 q 197 614 171 616 l 143 618 q 137 618 137 625 l 141 645 l 144 647 q 234 645 265 645 q 285 645 325 646 q 365 647 382 647 q 562 647 562 530 q 562 512 558 493 q 551 454 518 418 q 485 381 443 362 l 443 360 q 497 343 528 308 q 559 274 559 221 q 559 203 555 184 q 550 157 538 132 q 527 106 505 82 q 482 57 452 39 q 422 21 377 9 q 332 -2 277 -2 q 228 -2 191 -1 q 153 0 140 0 q 108 0 18 -2 l 16 0 z"},"K":{"x_min":0,"x_max":637,"ha":637,"o":"m 213 569 q 217 591 208 602 q 198 613 169 615 l 135 618 q 133 622 134 633 q 136 644 138 647 q 226 645 265 645 q 295 645 385 647 q 388 640 387 631 q 386 621 383 618 l 352 615 q 322 612 308 601 q 294 590 290 569 l 246 347 q 290 350 331 386 l 527 562 q 556 590 556 602 q 556 613 533 616 l 514 618 q 506 618 508 626 l 511 645 l 514 647 q 604 645 625 645 q 629 645 719 647 l 722 645 l 718 626 q 716 618 706 618 q 681 615 665 611 q 649 607 625 594 q 600 581 574 558 l 410 407 q 368 369 365 358 q 364 345 372 333 l 532 73 q 545 51 561 41 q 577 31 598 28 l 604 27 q 612 25 611 19 l 608 0 l 604 -2 q 514 0 505 0 q 477 0 437 -2 l 436 0 l 437 6 q 441 22 441 35 q 441 56 431 73 l 313 271 q 292 309 239 309 l 193 76 q 188 53 198 43 q 208 32 237 30 l 271 27 q 273 23 272 12 q 271 1 268 -2 q 180 0 141 0 q 111 0 21 -2 q 18 5 19 14 q 20 24 23 27 l 54 30 q 84 33 98 43 q 112 54 116 76 z"},"R":{"x_min":0,"x_max":555,"ha":555,"o":"m 381 620 q 333 620 314 609 q 295 598 291 574 l 242 325 l 290 325 q 328 325 357 332 q 386 338 413 354 q 439 371 458 402 q 476 433 485 478 q 490 505 490 521 q 490 550 480 571 q 471 591 454 601 q 438 611 420 616 q 402 620 381 620 z m 387 654 q 442 654 480 644 q 518 634 543 604 q 574 566 574 517 q 574 503 570 479 q 564 449 549 422 q 535 396 517 377 q 500 359 479 344 q 458 329 441 321 q 424 313 409 308 l 489 98 q 504 59 521 40 q 537 21 566 21 l 563 -3 q 547 -10 521 -10 q 447 -10 411 79 l 343 253 q 337 266 329 273 q 320 281 297 286 q 274 291 236 291 l 193 72 q 191 64 191 59 q 191 44 202 38 q 212 31 237 29 l 262 27 q 270 27 268 19 l 265 0 l 262 -2 q 172 0 140 0 q 108 0 18 -2 l 16 0 l 20 19 q 21 27 29 27 l 54 29 q 84 31 98 41 q 111 51 115 72 l 213 574 q 214 581 214 583 q 214 600 203 608 q 193 615 179 616 l 142 618 q 136 618 137 624 l 141 645 l 144 647 q 234 645 265 645 q 286 645 332 649 q 377 654 387 654 z"},"T":{"x_min":0,"x_max":544,"ha":544,"o":"m 229 645 l 563 645 q 579 645 591 647 q 604 649 618 653 q 633 656 645 658 q 641 593 656 518 q 644 513 626 513 q 612 566 596 586 q 579 606 542 606 l 488 606 q 461 606 450 597 q 439 589 434 564 l 339 76 q 334 53 344 43 q 354 32 383 30 l 417 27 q 419 23 418 12 q 417 1 414 -2 q 326 0 287 0 q 257 0 167 -2 q 164 5 165 14 q 166 24 169 27 l 200 30 q 230 33 244 44 q 258 55 262 76 l 357 567 q 361 589 353 598 q 346 606 317 606 l 248 606 q 208 606 185 588 q 163 570 141 521 q 122 521 111 527 q 146 611 158 658 q 163 658 188 651 q 214 645 229 645 z"},"P":{"x_min":0,"x_max":499,"ha":499,"o":"m 291 574 l 242 321 q 258 316 309 316 q 380 316 424 353 q 467 388 483 468 q 489 498 489 520 q 489 620 378 620 q 330 620 312 609 q 295 598 291 574 z m 115 71 l 213 574 q 214 581 214 583 q 214 600 203 608 q 193 615 179 616 l 142 618 q 136 618 137 624 l 141 645 l 144 647 q 214 645 266 645 q 288 645 334 649 q 381 654 392 654 q 435 654 468 645 q 501 637 521 623 q 540 610 553 591 q 565 573 570 555 q 574 538 574 518 q 574 502 571 486 q 565 458 554 432 q 543 405 521 378 q 500 350 471 329 q 442 309 400 295 q 357 282 307 282 q 265 282 236 292 l 193 71 q 191 64 191 59 q 191 43 202 37 q 213 30 237 29 l 272 27 q 279 27 278 19 l 274 0 l 272 -2 q 182 0 141 0 q 88 0 18 -2 l 16 0 l 20 19 q 21 27 29 27 l 54 29 q 83 31 98 41 q 112 50 115 71 z"},"|":{"x_min":0,"x_max":205,"ha":205,"o":"m 84 -233 l 40 -233 l 196 652 l 240 652 z"},"t":{"x_min":0,"x_max":307,"ha":307,"o":"m 186 429 l 199 479 q 201 487 204 501 q 207 516 209 524 q 211 533 215 542 q 219 552 226 556 q 233 561 243 561 q 266 561 275 554 q 283 548 283 534 q 283 529 281 519 q 279 509 275 494 q 271 479 270 474 l 260 429 l 359 429 q 367 423 363 409 q 359 394 349 390 l 251 390 l 192 127 q 181 79 181 64 q 181 56 186 53 q 190 50 194 50 q 207 50 224 62 q 241 75 274 112 q 292 112 296 93 q 271 48 228 19 q 186 -10 151 -10 q 126 -10 114 0 q 102 10 102 36 q 102 55 116 118 l 177 390 l 107 390 q 101 390 101 392 q 101 397 105 409 q 109 424 133 426 z"},"M":{"x_min":0,"x_max":804,"ha":804,"o":"m 655 87 l 715 534 l 713 534 l 394 5 q 387 -6 379 -6 q 369 -6 366 5 l 269 524 l 267 524 l 141 86 q 137 69 137 60 q 137 31 163 29 l 187 27 q 196 27 195 19 l 194 0 l 191 -2 q 135 0 103 0 q 76 0 18 -2 l 16 0 l 18 19 q 19 27 28 27 l 54 29 q 90 31 104 86 l 245 574 q 249 585 249 594 q 249 604 241 610 q 233 615 216 616 l 189 618 q 184 618 182 620 q 181 622 181 625 l 183 645 l 185 647 l 329 646 l 427 137 q 428 124 432 124 q 435 124 443 138 l 746 647 l 872 647 l 874 645 l 872 625 q 872 619 860 618 l 834 616 q 813 614 802 604 q 792 594 789 574 l 728 87 q 726 71 726 65 q 726 48 732 39 q 739 30 756 29 l 782 27 q 787 26 789 25 q 792 23 791 19 l 789 0 l 787 -2 q 697 0 679 0 q 668 0 576 -2 l 574 0 l 576 19 q 577 26 586 27 l 612 29 q 630 30 641 47 q 652 64 655 87 z"},"g":{"x_min":0,"x_max":477,"ha":477,"o":"m 161 -3 q 146 -14 136 -22 q 126 -30 109 -46 q 92 -62 83 -79 q 74 -96 74 -113 q 74 -155 116 -180 q 159 -205 240 -205 q 301 -205 332 -182 q 362 -159 362 -127 q 362 -101 344 -83 q 325 -64 282 -44 q 259 -34 218 -20 q 177 -6 161 -3 z m 415 291 q 415 218 372 175 q 330 132 263 132 q 223 132 195 149 q 194 147 190 140 l 185 130 q 183 126 180 120 q 177 113 176 108 q 174 104 173 98 q 172 93 172 88 q 172 74 179 64 q 187 55 204 48 q 220 41 236 37 q 251 33 279 26 q 307 20 325 14 q 427 -16 427 -100 q 427 -238 199 -238 q 173 -238 148 -235 q 123 -232 97 -225 q 70 -218 51 -207 q 32 -196 19 -178 q 7 -160 7 -136 q 7 -115 20 -93 q 33 -71 55 -52 q 77 -33 98 -19 q 119 -5 142 8 q 116 23 116 56 q 116 81 133 112 q 149 144 170 165 q 124 220 124 283 q 124 314 133 342 q 142 369 160 391 q 178 413 208 426 q 239 439 280 439 q 342 439 378 397 q 424 439 477 439 q 494 439 505 429 q 516 418 516 405 q 516 391 507 381 q 499 372 485 372 q 468 372 457 389 q 451 399 442 399 q 436 399 421 391 q 405 384 395 374 q 415 346 415 291 z m 341 291 q 341 344 324 376 q 307 409 276 409 q 252 409 236 400 q 220 391 212 372 q 204 354 201 333 q 198 312 198 282 q 198 162 268 162 q 341 162 341 291 z"},"y":{"x_min":0,"x_max":503,"ha":503,"o":"m 353 0 l 307 -70 q 259 -144 205 -188 q 150 -234 110 -234 q 99 -234 86 -231 q 73 -228 61 -217 q 49 -207 49 -192 q 49 -170 63 -156 q 78 -141 95 -141 q 101 -141 113 -146 q 125 -150 130 -155 q 136 -160 147 -167 q 159 -173 165 -173 q 176 -173 205 -141 q 233 -110 262 -62 q 271 -42 253 96 q 236 232 213 309 q 204 340 197 351 q 190 362 169 362 q 149 362 104 341 q 94 351 91 372 q 120 393 163 416 q 207 439 223 439 q 242 439 253 422 q 264 406 275 365 q 295 280 304 206 q 313 132 318 30 l 325 27 q 336 44 355 74 l 388 126 l 401 148 q 477 267 477 321 q 477 350 456 381 q 451 389 451 402 q 451 439 497 439 q 549 439 549 392 q 549 349 522 285 q 513 262 486 217 l 435 131 l 383 48 q 356 6 353 0 z"},"@":{"x_min":0,"x_max":829,"ha":829,"o":"m 596 316 q 602 344 588 361 q 573 379 548 379 q 532 379 506 369 q 480 359 456 339 q 378 271 355 162 q 336 70 408 70 q 432 70 471 107 q 510 145 542 200 q 559 226 575 259 q 591 292 596 316 z m 557 74 q 556 70 558 67 q 559 64 561 63 q 562 62 564 62 q 602 62 631 72 q 661 82 687 106 q 712 130 732 172 q 751 214 764 275 q 779 352 765 410 q 752 467 717 505 q 682 543 638 562 q 595 581 549 581 q 505 581 461 569 q 417 557 373 530 q 328 502 291 463 q 253 424 224 367 q 194 311 179 241 q 172 207 169 174 q 167 140 169 103 q 172 66 182 34 q 191 1 210 -28 q 229 -58 255 -79 q 282 -100 322 -113 q 362 -125 412 -125 q 522 -125 613 -59 l 622 -77 q 564 -117 512 -138 q 459 -158 387 -158 q 279 -158 206 -107 q 132 -57 105 30 q 79 117 101 223 q 124 329 194 418 q 264 507 363 559 q 461 611 565 611 q 664 611 733 568 q 803 525 831 450 q 859 375 839 282 q 831 246 815 212 q 800 177 773 143 q 746 109 711 84 q 676 59 625 43 q 575 27 517 27 q 500 27 494 40 q 489 53 493 68 q 497 87 520 131 l 518 132 q 478 80 439 54 q 400 29 373 29 q 347 29 328 38 q 309 47 300 61 q 291 74 286 92 q 282 110 282 125 q 283 139 285 153 q 296 205 326 253 q 356 302 395 335 q 434 369 477 390 q 520 410 557 410 q 580 410 598 398 q 616 386 619 367 l 629 391 l 681 404 l 693 399 l 583 141 q 560 85 557 74 z"},".":{"x_min":0,"x_max":219,"ha":219,"o":"m 125 95 q 145 95 158 82 q 171 69 171 51 q 171 27 153 8 q 134 -11 109 -11 q 89 -11 76 2 q 63 16 63 35 q 63 57 81 76 q 99 95 125 95 z"},"p":{"x_min":0,"x_max":489,"ha":489,"o":"m 266 404 q 325 439 381 439 q 417 439 443 428 q 469 417 483 395 q 497 374 503 348 q 509 322 509 289 q 509 182 428 83 q 353 -10 255 -10 q 234 -10 215 0 q 195 10 182 23 l 138 -161 q 135 -171 137 -178 q 140 -186 142 -190 q 145 -194 151 -197 q 157 -199 161 -200 q 165 -201 171 -202 l 190 -205 q 196 -207 196 -213 l 196 -233 l 194 -235 q 126 -233 87 -233 q 71 -233 45 -234 q 19 -235 1 -236 l -17 -238 l -19 -236 l -19 -217 q -19 -211 -9 -209 l 10 -206 q 34 -202 46 -192 q 58 -182 63 -161 l 166 298 q 116 257 94 228 q 69 228 63 249 q 83 273 109 297 q 136 320 178 350 l 191 409 q 192 416 194 428 l 198 447 q 199 455 203 464 q 206 474 210 479 q 214 484 221 488 q 228 491 237 491 q 260 491 269 484 q 279 478 279 464 q 279 458 276 448 l 271 424 q 268 411 266 404 z m 427 273 q 427 393 349 393 q 332 393 313 387 q 295 381 284 375 q 273 369 257 359 l 191 67 q 222 25 265 25 q 293 25 321 45 q 349 64 369 97 q 396 140 412 188 q 427 235 427 273 z"},"X":{"x_min":0,"x_max":628,"ha":628,"o":"m 134 625 l 138 644 l 141 647 q 217 645 240 645 q 267 645 357 647 q 357 644 358 644 l 355 625 q 354 618 349 618 l 317 616 q 294 615 294 601 q 294 593 304 572 l 384 396 q 390 385 393 385 q 397 385 408 397 l 566 572 q 587 595 587 605 q 587 615 569 616 l 541 618 q 534 618 535 625 l 539 645 l 541 647 q 619 645 636 645 q 652 645 730 647 l 732 645 l 728 625 q 728 618 718 618 q 697 618 680 613 q 664 608 649 597 q 634 586 625 578 q 616 569 600 552 l 440 375 q 423 356 421 345 q 420 344 420 340 q 420 330 430 312 l 537 102 q 572 30 624 27 q 630 27 630 20 l 626 0 l 624 -2 q 546 0 523 0 q 493 0 403 -2 l 400 0 l 404 20 q 405 27 411 27 l 431 29 q 449 31 456 34 q 463 37 463 43 q 463 51 452 73 l 362 261 q 356 272 350 272 q 347 272 333 258 l 171 77 q 152 55 152 44 q 152 31 176 29 l 194 27 q 199 26 199 20 l 195 0 l 192 -2 q 102 0 84 0 q 61 0 3 -2 l 3 0 l 7 20 q 8 27 19 27 q 39 28 58 35 q 77 43 93 56 q 110 69 120 79 q 131 89 144 104 l 312 291 q 325 306 326 314 q 327 316 327 320 q 327 330 318 344 l 220 549 q 191 610 148 618 q 134 622 134 625 z"},"*":{"x_min":0,"x_max":433,"ha":433,"o":"m 298 567 q 282 571 256 571 q 219 571 201 578 q 182 584 182 602 l 182 608 q 185 620 194 629 q 204 638 220 638 q 235 638 248 630 q 260 621 276 608 q 292 594 308 587 l 308 598 q 308 613 303 636 q 299 659 299 668 q 299 670 299 674 q 300 677 300 679 q 303 695 314 707 q 325 718 338 718 q 351 718 358 711 q 365 704 365 691 l 365 683 q 363 669 347 634 q 332 600 328 586 q 347 594 368 608 q 388 622 403 630 q 418 638 433 638 q 461 638 461 612 l 461 608 q 455 571 386 571 q 355 571 331 567 q 340 554 358 540 q 376 526 388 514 q 399 502 399 488 q 399 483 398 480 q 396 467 385 459 q 375 451 364 451 q 346 451 338 467 q 329 483 323 513 q 317 542 311 555 q 301 542 284 511 q 267 480 253 466 q 240 451 223 451 q 212 451 205 458 q 198 465 198 475 l 198 479 q 202 498 217 511 q 232 524 258 539 q 283 553 298 567 z"},"Y":{"x_min":0,"x_max":552,"ha":552,"o":"m 336 76 q 332 54 341 43 q 351 32 380 30 l 414 27 q 416 23 415 12 q 414 1 411 -2 q 323 0 284 0 q 254 0 164 -2 q 161 5 162 14 q 163 24 166 27 l 197 30 q 227 33 241 44 q 255 55 259 76 l 294 259 q 297 277 297 284 q 297 293 294 302 l 202 547 q 187 588 176 601 q 166 613 141 616 l 126 618 q 124 622 123 633 q 122 643 124 647 q 180 645 228 645 q 257 645 335 647 q 336 644 336 633 q 335 622 333 618 l 300 615 q 276 613 273 604 q 270 596 279 576 l 364 335 l 368 335 l 526 576 q 541 598 540 605 q 539 613 521 615 l 489 618 q 487 621 488 633 q 489 644 491 647 q 567 645 582 645 q 604 645 662 647 q 664 644 662 633 q 661 622 658 618 l 632 616 q 619 615 610 612 q 600 608 592 600 q 583 592 578 586 q 573 580 563 565 l 388 310 q 379 296 374 268 z"},"c":{"x_min":0,"x_max":389,"ha":389,"o":"m 209 -10 q 179 -10 154 3 q 128 16 113 38 q 83 80 83 149 q 83 214 105 271 q 127 328 165 369 q 195 400 237 420 q 279 439 311 439 q 342 439 364 432 q 386 426 397 417 q 409 408 415 393 q 421 378 422 368 q 423 358 423 343 q 423 324 407 311 q 392 298 371 298 q 359 298 352 308 q 344 317 344 330 q 344 342 349 351 q 354 359 354 370 q 354 385 346 395 q 338 404 330 406 q 321 408 312 408 q 251 408 208 343 q 165 278 165 171 q 165 129 171 109 q 177 88 190 72 q 208 49 240 49 q 277 49 308 69 q 339 88 372 125 q 379 125 385 121 q 392 116 394 108 q 356 55 308 22 q 260 -10 209 -10 z"},"!":{"x_min":0,"x_max":227,"ha":227,"o":"m 88 40 q 92 62 111 77 q 129 93 151 93 q 170 93 183 80 q 196 67 196 49 q 196 47 195 44 q 195 42 195 40 q 191 19 173 3 q 154 -13 132 -13 q 112 -13 100 0 q 87 12 87 31 q 87 32 87 35 q 88 39 88 40 z m 252 665 q 271 665 284 651 q 297 637 297 611 q 297 599 295 592 q 290 563 281 535 q 272 507 259 469 q 245 430 235 398 q 201 282 188 217 q 183 197 170 197 q 158 197 158 208 l 158 210 q 173 361 176 398 q 179 446 179 466 q 179 474 179 489 q 178 503 178 510 q 178 553 185 592 q 192 628 212 647 q 232 665 252 665 z"},"/":{"x_min":0,"x_max":291,"ha":291,"o":"m 402 682 l 42 -21 l 0 -21 l 361 682 z"},"[":{"x_min":0,"x_max":334,"ha":334,"o":"m 424 689 l 417 646 l 270 646 l 129 -156 l 275 -156 l 268 -200 l 53 -200 l 209 689 z"},"6":{"x_min":0,"x_max":444,"ha":444,"o":"m 194 307 q 178 268 171 229 q 162 179 161 142 q 160 105 166 83 q 172 61 185 47 q 197 34 212 29 q 227 24 246 24 q 284 24 316 65 q 349 105 364 184 q 367 201 368 219 q 369 236 365 257 q 361 277 352 293 q 343 309 324 320 q 305 330 278 330 q 232 330 194 307 z m 209 344 q 259 365 305 365 q 343 365 372 356 q 400 348 417 333 q 434 317 443 297 q 453 276 453 252 q 453 228 448 202 q 441 168 424 132 q 407 97 380 64 q 353 31 313 10 q 274 -11 229 -11 q 212 -11 196 -9 q 180 -6 162 1 q 145 9 131 20 q 117 32 106 51 q 94 70 88 95 q 82 120 83 155 q 83 190 91 232 q 103 293 138 357 q 173 421 228 474 q 280 525 334 557 q 390 589 465 611 q 474 604 471 585 q 422 567 379 540 q 336 512 305 479 q 273 446 250 413 q 227 380 209 344 z"},"r":{"x_min":0,"x_max":357,"ha":357,"o":"m 221 285 l 225 284 q 258 355 299 397 q 340 439 377 439 q 402 439 416 425 q 429 410 429 392 q 429 371 416 353 q 403 336 384 336 q 369 336 350 357 q 340 369 329 369 q 301 369 202 189 l 173 72 q 171 65 168 52 q 166 40 164 33 q 163 26 159 17 q 156 7 152 2 q 148 -2 142 -6 q 135 -10 127 -10 q 89 -10 89 17 q 89 24 91 32 q 93 41 96 52 q 100 64 102 72 l 157 321 q 164 349 164 372 q 164 391 146 392 l 106 395 q 95 412 105 423 q 118 424 139 427 l 171 432 q 184 434 199 435 q 214 436 225 436 q 235 436 241 429 q 247 423 247 411 q 247 396 229 320 z"},"2":{"x_min":0,"x_max":444,"ha":444,"o":"m 148 468 q 153 491 170 515 q 187 540 213 561 q 238 583 275 596 q 311 610 349 610 q 379 610 406 601 q 432 592 452 575 q 473 557 481 527 q 489 497 482 458 q 477 431 466 407 q 455 384 435 362 q 415 339 399 324 q 383 309 352 283 l 236 186 q 225 177 209 163 q 194 148 169 117 q 145 86 141 65 l 312 65 q 338 65 357 86 q 375 107 398 161 q 416 165 425 156 q 419 131 403 83 q 387 35 371 -2 q 328 0 297 0 l 129 0 l 48 -2 q 57 46 87 90 q 118 134 198 205 l 283 278 q 334 323 360 364 q 387 406 396 454 q 402 490 400 514 q 397 537 386 551 q 375 564 363 570 q 351 575 336 575 q 289 575 261 556 q 233 537 229 514 q 229 509 229 506 q 229 503 230 498 q 231 492 232 490 q 234 477 232 469 q 229 454 211 442 q 193 429 179 429 q 164 429 155 441 q 145 452 148 468 z"},"{":{"x_min":0,"x_max":273,"ha":273,"o":"m 279 567 l 247 386 q 235 320 216 292 q 196 263 155 247 q 182 234 193 215 q 204 196 204 165 q 204 143 196 95 l 167 -69 q 162 -102 162 -122 q 162 -146 167 -162 q 172 -174 177 -182 q 183 -190 190 -195 q 197 -199 199 -200 q 202 -201 208 -203 l 206 -217 q 121 -215 101 -181 q 89 -159 89 -123 q 89 -104 96 -54 l 127 121 q 132 149 132 168 q 132 231 82 244 l 83 249 q 152 268 171 370 l 205 559 q 218 640 253 675 q 288 709 370 711 l 367 697 q 334 688 311 656 q 291 630 279 567 z"},"9":{"x_min":0,"x_max":444,"ha":444,"o":"m 384 292 q 400 332 407 370 q 417 420 417 457 q 418 494 412 516 q 406 539 394 552 q 381 565 366 570 q 352 575 332 575 q 294 575 261 534 q 228 493 213 415 q 209 398 209 381 q 208 363 212 342 q 216 322 226 306 q 235 290 254 280 q 273 269 300 269 q 346 269 384 292 z m 369 256 q 318 234 273 234 q 235 234 206 243 q 178 251 161 267 q 145 282 135 302 q 125 323 125 347 q 125 371 130 397 q 135 424 147 452 q 159 480 178 509 q 198 538 222 560 q 247 582 280 596 q 313 610 349 610 q 366 610 382 607 q 398 604 415 597 q 433 590 446 578 q 460 567 471 548 q 483 529 489 504 q 495 479 494 444 q 494 409 486 367 q 474 306 439 242 q 404 178 350 125 q 299 75 243 42 q 188 10 113 -12 q 104 -6 107 14 q 156 32 199 60 q 242 87 273 120 q 305 153 328 186 q 351 220 369 256 z"}," ":{"x_min":0,"x_max":250,"ha":250,"o":""},"I":{"x_min":0,"x_max":280,"ha":280,"o":"m 213 569 q 217 591 208 602 q 198 613 169 615 l 135 618 q 133 622 134 633 q 136 644 138 647 q 226 645 265 645 q 295 645 385 647 q 388 640 387 631 q 386 621 383 618 l 352 615 q 322 612 308 601 q 294 590 290 569 l 193 76 q 188 53 198 43 q 208 32 237 30 l 271 27 q 273 23 272 12 q 271 1 268 -2 q 180 0 141 0 q 111 0 21 -2 q 18 5 19 14 q 20 24 23 27 l 54 30 q 84 33 98 43 q 112 54 116 76 z"},"H":{"x_min":0,"x_max":673,"ha":673,"o":"m 603 569 q 607 591 598 602 q 588 613 559 615 l 525 618 q 523 622 524 633 q 525 644 528 647 q 616 645 655 645 q 685 645 775 647 q 778 640 777 631 q 776 621 773 618 l 742 615 q 712 612 698 601 q 685 590 680 569 l 583 76 q 579 53 588 43 q 598 32 627 30 l 661 27 q 663 23 662 12 q 661 1 658 -2 q 570 0 531 0 q 501 0 411 -2 q 408 5 409 14 q 410 24 413 27 l 444 30 q 474 33 488 43 q 502 54 506 76 l 554 321 l 241 321 l 193 76 q 188 53 198 43 q 208 32 237 30 l 271 27 q 273 23 272 12 q 271 1 268 -2 q 180 0 141 0 q 111 0 21 -2 q 18 5 19 14 q 20 24 23 27 l 54 30 q 84 33 98 43 q 112 54 116 76 l 213 569 q 217 591 208 602 q 198 613 169 615 l 135 618 q 133 622 134 633 q 136 644 138 647 q 226 645 265 645 q 295 645 385 647 q 388 640 387 631 q 386 621 383 618 l 352 615 q 322 612 308 601 q 294 590 290 569 l 250 363 l 562 363 z"},"4":{"x_min":0,"x_max":444,"ha":444,"o":"m 363 507 q 272 406 124 219 l 307 219 z m 460 219 q 475 219 471 203 q 470 194 458 183 q 447 172 437 172 l 371 172 l 353 80 q 351 67 351 58 q 352 50 355 45 q 359 40 366 37 q 372 35 382 33 q 390 32 403 31 q 408 31 411 31 q 415 26 412 14 q 409 2 404 -2 q 342 0 300 0 q 248 0 186 -2 q 183 2 185 14 q 188 26 193 31 q 236 34 250 40 q 274 50 280 80 l 298 172 l 102 172 q 94 172 88 175 q 82 178 79 182 q 77 186 75 193 q 74 200 73 204 q 73 208 73 214 l 256 431 q 351 541 408 599 q 417 610 425 610 l 456 610 l 458 608 q 454 597 437 511 l 380 219 z"},"~":{"x_min":0,"x_max":449,"ha":449,"o":"m 63 209 q 82 259 125 298 q 169 337 213 337 q 228 337 247 327 q 266 316 281 304 q 296 292 315 282 q 334 272 349 272 q 375 272 407 289 q 439 305 460 339 l 476 333 q 458 295 437 270 q 416 244 395 232 q 375 221 361 217 q 347 213 335 213 q 317 213 298 223 q 279 233 265 245 q 251 257 233 268 q 214 278 197 278 q 169 278 133 258 q 97 238 75 206 z"},"D":{"x_min":0,"x_max":667,"ha":667,"o":"m 19 18 q 21 27 28 27 l 57 29 q 83 30 97 41 q 111 51 116 74 l 213 572 q 215 583 215 590 q 215 604 206 609 q 196 614 171 616 l 145 618 q 137 618 138 626 l 141 645 l 144 647 q 234 645 265 645 q 282 645 335 646 q 389 647 422 647 q 542 647 618 570 q 694 492 694 375 q 694 344 687 308 q 673 237 643 182 q 612 126 574 93 q 536 59 490 37 q 443 15 400 6 q 357 -2 313 -2 q 256 -2 203 -1 q 151 0 140 0 q 108 0 18 -2 l 16 0 z m 193 73 q 191 66 191 60 q 191 49 199 43 q 208 38 229 35 q 250 32 290 32 q 333 32 370 39 q 407 45 444 63 q 481 80 509 108 q 538 136 561 181 q 583 225 594 284 q 603 330 603 374 q 603 413 596 447 q 589 481 572 512 q 555 543 530 565 q 505 587 466 600 q 428 613 379 613 q 359 613 346 612 q 333 610 320 607 q 308 603 301 595 q 293 587 291 574 z"},"^":{"x_min":0,"x_max":518,"ha":518,"o":"m 363 593 l 217 347 l 173 347 l 353 650 l 395 650 l 467 347 l 423 347 z"},"0":{"x_min":0,"x_max":444,"ha":444,"o":"m 344 575 q 330 575 316 569 q 301 562 283 543 q 266 523 249 492 q 233 461 216 408 q 199 354 185 283 q 180 258 177 234 q 173 209 170 178 q 167 146 170 121 q 172 96 178 73 q 184 50 198 38 q 212 25 234 25 q 242 25 252 28 q 263 31 277 40 q 292 48 308 68 q 324 87 337 116 q 365 178 393 322 q 411 424 407 480 q 404 537 384 558 q 371 575 344 575 z m 226 -10 q 170 -10 137 32 q 106 73 97 144 q 88 214 104 294 q 118 366 146 426 q 173 487 207 526 q 240 566 278 588 q 315 610 351 610 q 388 610 414 592 q 440 574 455 545 q 502 456 473 303 q 460 236 437 181 q 414 126 388 91 q 362 57 332 33 q 302 10 276 0 q 250 -10 226 -10 z"},"F":{"x_min":0,"x_max":457,"ha":457,"o":"m 359 323 l 237 323 l 189 74 q 188 66 188 61 q 188 45 198 38 q 208 31 233 29 l 257 27 q 266 27 264 19 l 260 0 l 258 -2 q 168 0 135 0 q 104 0 14 -2 l 12 0 l 16 19 q 18 27 25 27 l 51 29 q 81 31 94 42 q 107 52 111 74 l 208 571 q 209 579 209 585 q 209 601 200 607 q 190 614 167 616 l 139 618 q 130 618 133 625 l 137 645 l 139 647 q 229 645 260 645 l 504 645 q 526 645 550 649 q 553 649 553 646 q 553 617 545 501 l 517 496 q 515 520 512 534 q 509 549 503 564 q 497 579 487 587 q 478 595 463 600 q 448 605 427 605 l 327 605 q 292 605 285 571 l 245 361 l 367 361 q 391 361 404 371 q 416 381 423 403 l 430 428 q 432 436 439 436 l 460 436 l 463 432 q 447 374 442 342 q 434 299 429 255 l 424 252 l 403 252 q 399 252 398 255 q 397 257 398 260 l 400 285 q 400 288 400 293 q 400 310 391 317 q 381 323 359 323 z"},"`":{"x_min":0,"x_max":392,"ha":392,"o":"m 301 698 l 349 573 q 352 564 352 558 q 352 552 351 549 q 350 545 345 542 q 340 538 335 538 q 327 538 309 558 l 214 667 l 218 677 q 219 677 228 683 q 237 688 243 691 q 250 695 262 698 q 274 701 287 701 q 296 701 301 698 z"},"k":{"x_min":0,"x_max":486,"ha":486,"o":"m 89 72 l 199 563 q 206 594 206 613 q 206 628 201 635 q 196 641 185 641 l 154 643 q 149 643 149 648 l 152 672 q 183 674 227 682 q 272 691 292 698 q 304 698 304 688 l 279 583 l 207 272 q 230 272 266 303 l 306 337 q 360 385 404 412 q 447 439 471 439 q 520 439 520 404 q 520 383 504 368 q 487 354 474 354 q 456 354 443 361 q 430 368 418 368 q 403 368 382 354 q 360 340 322 306 l 270 260 l 270 256 q 293 250 302 240 q 312 229 325 202 q 331 191 347 151 q 364 111 380 80 q 380 79 383 73 l 387 67 l 390 62 q 392 57 393 56 l 396 51 q 399 48 401 47 q 402 46 405 44 q 407 43 410 42 q 413 42 416 42 q 424 42 438 55 q 453 68 468 90 q 476 90 480 87 q 484 84 490 77 q 440 -10 389 -10 q 359 -10 338 14 q 316 37 291 93 q 281 113 266 159 q 251 204 241 221 q 232 237 221 237 q 208 237 199 234 l 163 72 q 162 64 159 50 q 156 34 154 27 q 152 19 147 9 q 143 -1 135 -5 q 128 -10 117 -10 q 95 -10 85 -3 q 76 4 76 17 q 76 21 78 30 q 80 39 84 52 z"},"u":{"x_min":0,"x_max":521,"ha":521,"o":"m 506 352 l 450 124 q 439 74 439 67 q 439 50 449 50 q 457 50 476 64 q 496 79 514 100 q 531 100 537 83 q 465 -10 398 -10 q 377 -10 369 -1 q 361 7 361 23 q 361 53 378 115 l 389 154 l 386 156 q 356 112 336 85 q 315 59 290 35 q 265 11 240 1 q 216 -10 187 -10 q 158 -10 139 10 q 120 30 120 70 q 120 100 130 137 l 174 305 q 187 355 187 362 q 187 379 177 379 q 168 379 147 364 q 126 350 108 329 q 91 329 85 346 q 119 390 159 415 q 200 439 236 439 q 256 439 264 430 q 272 422 272 406 q 272 397 269 383 q 266 368 260 346 l 251 314 l 208 151 q 199 116 199 87 q 199 50 229 50 q 264 50 302 96 q 340 142 402 247 l 431 357 q 434 365 436 380 q 439 394 441 403 q 443 411 447 421 q 452 430 459 435 q 466 439 477 439 q 500 439 510 432 q 519 426 519 412 q 519 405 513 381 q 507 357 506 352 z"},"]":{"x_min":0,"x_max":334,"ha":334,"o":"m -3 -200 l 4 -156 l 151 -156 l 292 646 l 146 646 l 153 689 l 368 689 l 211 -200 z"},"U":{"x_min":0,"x_max":634,"ha":634,"o":"m 306 -10 q 281 -10 258 -6 q 235 -1 210 11 q 185 23 166 42 q 148 61 136 93 q 124 125 124 166 q 124 200 131 236 l 197 572 q 198 579 198 585 q 198 600 188 607 q 177 614 153 616 l 128 618 q 121 618 122 626 l 125 645 l 128 647 q 218 645 249 645 q 282 645 372 647 l 374 645 l 370 626 q 369 618 361 618 l 336 616 q 307 614 292 604 q 278 593 274 572 l 215 269 q 203 202 203 171 q 203 117 230 81 q 270 31 334 31 q 368 31 397 39 q 425 47 446 60 q 467 73 484 93 q 501 113 513 133 q 524 153 533 179 q 543 206 548 228 q 553 248 559 277 l 616 570 q 618 578 618 584 q 618 600 607 607 q 597 614 573 616 l 547 618 q 544 618 542 620 q 541 623 541 626 l 545 645 l 547 647 q 637 645 652 645 q 668 645 758 647 l 760 645 l 756 626 q 754 618 747 618 l 722 616 q 692 614 678 603 q 664 591 660 570 l 606 295 q 595 238 580 195 q 566 151 542 111 q 518 71 487 46 q 455 21 409 5 q 364 -10 306 -10 z"},"o":{"x_min":0,"x_max":447,"ha":447,"o":"m 161 170 q 161 99 184 63 q 207 27 233 27 q 263 27 291 42 q 319 57 339 88 q 363 125 372 176 q 382 228 382 270 q 382 332 367 362 q 355 384 342 395 q 328 406 306 406 q 269 406 239 382 q 210 358 194 321 q 177 284 169 245 q 161 206 161 170 z m 78 162 q 78 199 87 237 q 97 275 117 311 q 137 348 165 376 q 193 404 235 422 q 276 439 324 439 q 360 439 386 429 q 412 418 427 403 q 442 387 451 365 q 459 342 462 322 q 465 301 465 277 q 465 190 421 116 q 377 42 310 9 q 273 -10 218 -10 q 182 -10 155 3 q 128 17 114 35 q 100 53 91 79 q 83 104 80 123 q 78 142 78 162 z"},"N":{"x_min":0,"x_max":666,"ha":666,"o":"m 687 557 l 583 21 q 577 -10 557 -10 q 534 -10 523 14 l 274 455 q 254 488 247 488 q 238 488 228 439 l 160 88 q 158 77 158 73 q 158 55 169 43 q 180 31 201 29 l 226 27 q 232 26 232 19 l 230 0 l 228 -2 q 138 0 124 0 q 104 0 14 -2 l 12 0 l 14 18 q 15 26 28 27 l 53 29 q 81 31 96 48 q 112 65 117 88 l 207 550 q 206 571 191 594 q 175 616 154 618 q 147 619 144 621 q 140 623 140 626 l 142 645 l 145 647 l 277 647 l 520 203 q 546 157 552 151 q 555 148 558 148 q 562 148 564 154 q 566 161 570 178 l 644 557 q 646 564 646 572 q 646 612 603 616 l 579 618 q 575 619 571 621 q 566 623 567 626 l 570 645 l 572 647 q 662 645 682 645 q 696 645 786 647 l 788 645 l 786 626 q 786 623 782 620 q 779 618 777 618 l 750 616 q 723 614 708 598 q 692 582 687 557 z"},"+":{"x_min":0,"x_max":527,"ha":527,"o":"m 334 256 l 507 256 l 498 207 l 325 207 l 294 34 l 245 34 l 276 207 l 103 207 l 111 256 l 285 256 l 315 430 l 364 430 z"},"G":{"x_min":0,"x_max":664,"ha":664,"o":"m 487 658 q 526 658 559 651 q 592 644 610 635 q 627 627 648 620 q 669 613 688 613 q 679 521 679 459 l 649 453 q 646 481 640 504 q 634 526 621 549 q 608 572 589 587 q 569 602 538 612 q 507 621 467 621 q 368 621 285 539 q 202 457 177 327 q 171 297 171 268 q 171 222 184 180 q 197 138 221 103 q 246 68 288 47 q 329 26 382 26 q 422 26 463 38 q 504 51 532 74 l 562 227 q 563 234 563 240 q 563 254 553 261 q 542 267 517 269 l 493 271 q 485 271 487 279 l 492 305 l 494 307 q 584 305 615 305 q 646 305 704 307 l 706 305 l 701 279 q 700 273 691 271 q 667 269 656 260 q 644 251 640 227 l 617 111 q 615 95 627 83 q 566 37 500 14 q 434 -10 353 -10 q 229 -10 156 62 q 83 133 83 243 q 83 275 90 307 q 105 387 146 454 q 188 521 243 565 q 297 609 361 634 q 424 658 487 658 z"},"q":{"x_min":0,"x_max":491,"ha":491,"o":"m 405 330 q 405 361 388 382 q 371 403 344 403 q 295 403 253 367 q 211 331 188 274 q 165 218 165 158 q 165 128 170 101 q 175 73 188 53 q 201 32 219 32 q 248 32 299 83 q 351 133 367 180 q 381 221 393 269 q 405 317 405 330 z m 295 -161 l 361 99 l 358 100 q 314 39 276 15 q 238 -10 198 -10 q 171 -10 150 0 q 129 9 116 24 q 104 39 95 60 q 87 81 84 102 q 81 123 81 147 q 81 197 98 243 q 114 290 142 324 q 169 359 203 385 q 237 412 272 425 q 308 439 340 439 q 398 439 436 386 l 465 427 q 479 446 496 446 q 498 446 500 445 q 502 444 505 442 q 507 439 507 436 q 507 431 505 421 l 371 -161 q 368 -168 370 -174 q 371 -180 372 -184 q 372 -188 376 -190 l 382 -195 q 384 -197 389 -199 q 394 -200 397 -201 q 399 -202 404 -202 l 423 -205 q 429 -206 429 -213 l 429 -233 l 427 -235 q 359 -233 320 -233 q 304 -233 278 -234 q 251 -235 233 -236 l 215 -238 l 213 -236 l 213 -217 q 213 -211 223 -209 l 242 -206 q 266 -203 278 -192 q 290 -182 295 -161 z"},"d":{"x_min":0,"x_max":489,"ha":489,"o":"m 345 194 q 391 279 391 316 q 391 345 373 374 q 354 403 328 403 q 295 403 263 378 q 232 354 210 316 q 188 279 175 234 q 161 189 161 150 q 161 36 200 36 q 229 36 268 80 q 307 124 345 194 z m 345 116 l 342 118 q 296 51 259 21 q 221 -10 183 -10 q 152 -10 130 4 q 109 19 99 42 q 89 65 85 87 q 81 109 81 134 q 81 190 104 247 q 127 304 163 346 q 198 387 242 413 q 286 439 325 439 q 353 439 373 423 q 394 408 404 384 l 405 384 l 442 563 q 449 600 449 613 q 449 628 444 635 q 439 641 428 641 l 397 643 q 392 643 392 648 l 395 672 q 426 674 470 682 q 515 691 535 698 q 547 698 547 688 l 522 583 l 416 120 q 406 70 406 64 q 406 56 410 53 q 414 50 418 50 q 436 50 474 103 q 480 103 485 100 q 490 98 491 95 l 497 87 q 453 -10 369 -10 q 346 -10 337 4 q 328 17 328 35 q 328 50 338 90 z"},"1":{"x_min":0,"x_max":444,"ha":444,"o":"m 318 122 q 314 101 312 87 q 311 73 313 62 q 315 52 319 46 q 323 41 333 37 q 344 34 354 33 q 365 32 384 31 q 387 26 385 14 q 383 2 378 -2 q 282 0 261 0 q 221 0 127 -2 q 124 2 126 14 q 128 26 134 31 q 157 32 170 33 q 183 35 197 40 q 211 45 219 55 q 226 65 233 81 q 239 97 244 122 l 308 448 q 319 506 300 506 q 273 506 212 481 q 201 491 202 508 q 352 575 410 608 q 412 608 413 608 q 414 607 415 606 q 416 605 415 603 q 410 585 386 469 z"},"5":{"x_min":0,"x_max":444,"ha":444,"o":"m 345 189 q 360 267 337 304 q 313 341 263 341 q 202 341 136 317 l 225 605 q 280 600 328 600 q 384 600 487 611 l 493 607 l 465 539 q 405 533 363 533 q 331 533 252 542 l 201 375 q 246 391 298 391 q 350 391 385 365 q 419 339 431 298 q 443 256 434 207 q 416 112 346 51 q 277 -11 188 -11 q 160 -11 130 -1 q 101 9 81 27 q 62 44 66 64 q 69 79 83 90 q 96 101 110 101 q 136 101 153 69 q 154 66 158 59 q 162 51 164 48 q 166 45 171 39 q 175 34 180 31 q 184 28 191 26 q 198 24 207 24 q 251 24 292 71 q 332 118 345 189 z"}}}
